<mxfile host="app.diagrams.net" modified="2021-10-14T09:42:40.827Z" agent="5.0 (Windows NT 10.0; Win64; x64) AppleWebKit/537.36 (KHTML, like Gecko) Chrome/96.0.4644.0 Safari/537.36 Edg/96.0.1032.0" etag="MwLOL8HZYgAjsILWkpmQ" version="15.3.5" type="github" pages="2">
  <diagram id="yJBQJdoqphFo_Dcexdp_" name="Page-1">
    <mxGraphModel dx="1422" dy="772" grid="1" gridSize="10" guides="1" tooltips="1" connect="1" arrows="1" fold="1" page="1" pageScale="1" pageWidth="850" pageHeight="1100" math="0" shadow="0">
      <root>
        <mxCell id="0" />
        <mxCell id="1" parent="0" />
      </root>
    </mxGraphModel>
  </diagram>
  <diagram id="CCAD8VXz1qXcBSSHt24F" name="Page-2">
    <mxGraphModel dx="1422" dy="772" grid="1" gridSize="10" guides="1" tooltips="1" connect="1" arrows="1" fold="1" page="1" pageScale="1" pageWidth="850" pageHeight="1100" math="0" shadow="0">
      <root>
        <mxCell id="OKEoE4LzM8-ex8ezEtld-0" />
        <mxCell id="OKEoE4LzM8-ex8ezEtld-1" parent="OKEoE4LzM8-ex8ezEtld-0" />
      </root>
    </mxGraphModel>
  </diagram>
</mxfile>
